# xmcd
#
# Track frame offsets: 
#        150
#        17697
#        35952
#        49113
#        69000
#        90071
#        108424
#        123772
#        155517
#        166675
#        191104
#        223202
#        238721
#        267099
#        283601
#        314642
#        333562
#
# Disc length: 4662 seconds
#
# Revision: 2
# Processed by: cddbd v1.5.2PL0 Copyright (c) Steve Scherf et al.
# Submitted via: ExactAudioCopy v1.0b3
#
DISCID=ec123411
DTITLE=Miles Davis - movin'on
DYEAR=2005
DGENRE=Jazz
TTITLE0=Tempus Fugit
TTITLE1=Four
TTITLE2=Ezz-Thetic
TTITLE3=You Don't Know What Love Is
TTITLE4=How Deep Is the Ocean?
TTITLE5=Conception
TTITLE6=Tasty Pudding
TTITLE7=The Serpent's Tooth
TTITLE8=Yesterdays
TTITLE9=Well You Needn't
TTITLE10='Round Midnight
TTITLE11=Woody 'n' You
TTITLE12=Out Of The Blue
TTITLE13=Webb's Delight
TTITLE14=Ladybird
TTITLE15=Ow!
TTITLE16=Miles
EXTD=
EXTT0=
EXTT1=
EXTT2=
EXTT3=
EXTT4=
EXTT5=
EXTT6=
EXTT7=
EXTT8=
EXTT9=
EXTT10=
EXTT11=
EXTT12=
EXTT13=
EXTT14=
EXTT15=
EXTT16=
PLAYORDER=
